<?xml version="1.0" standalone="no"?>
<!DOCTYPE svg PUBLIC "-//W3C//DTD SVG 20010904//EN"
 "http://www.w3.org/TR/2001/REC-SVG-20010904/DTD/svg10.dtd">
<svg version="1.0" xmlns="http://www.w3.org/2000/svg"
 width="512.000000pt" height="512.000000pt" viewBox="0 0 512.000000 512.000000"
 preserveAspectRatio="xMidYMid meet">
<metadata>
Created by potrace 1.14, written by Peter Selinger 2001-2017
</metadata>
<g transform="translate(0.000000,512.000000) scale(0.100000,-0.100000)"
fill="#000000" stroke="none">
<path d="M2320 5110 c-502 -52 -982 -248 -1365 -557 -288 -232 -517 -518 -684
-854 -124 -249 -204 -502 -247 -784 -26 -169 -26 -541 0 -710 71 -465 260
-899 543 -1250 232 -288 518 -517 854 -684 249 -124 502 -204 784 -247 169
-26 541 -26 710 0 465 71 899 260 1250 543 288 232 517 518 684 854 124 249
204 502 247 784 26 169 26 541 0 710 -71 465 -260 899 -543 1250 -232 288
-518 517 -854 684 -246 123 -506 205 -779 246 -124 19 -478 28 -600 15z m-418
-1650 l3 -741 129 178 c71 98 326 431 565 741 l436 562 413 0 c330 0 412 -3
405 -12 -6 -7 -263 -330 -573 -718 -310 -388 -567 -710 -572 -717 -10 -12 16
-53 765 -1191 230 -347 417 -634 417 -637 0 -3 -179 -5 -398 -5 l-398 0 -419
655 c-231 360 -423 653 -427 652 -4 -1 -84 -85 -178 -186 l-170 -184 0 -468 0
-469 -340 0 -340 0 0 1640 0 1640 340 0 340 0 2 -740z"/>
</g>
</svg>
